<svg version="1.1" xmlns="http://www.w3.org/2000/svg" viewBox="0 0 1793.7522437686007 1542.9365889534113" width="3587.5044875372014" height="3085.8731779068225" filter="invert(93%) hue-rotate(180deg)">
  <!-- svg-source:excalidraw -->
  
  <defs>
    <style class="style-fonts">
      @font-face {
        font-family: "Virgil";
        src: url("https://file%2B.vscode-resource.vscode-cdn.net/c%3A/Users/bhaga/.cursor/extensions/pomdtr.excalidraw-editor-3.7.4/public//dist/excalidraw-assets/Virgil.woff2");
      }
      @font-face {
        font-family: "Cascadia";
        src: url("https://file%2B.vscode-resource.vscode-cdn.net/c%3A/Users/bhaga/.cursor/extensions/pomdtr.excalidraw-editor-3.7.4/public//dist/excalidraw-assets/Cascadia.woff2");
      }
      @font-face {
        font-family: "Assistant";
        src: url("https://file%2B.vscode-resource.vscode-cdn.net/c%3A/Users/bhaga/.cursor/extensions/pomdtr.excalidraw-editor-3.7.4/public//dist/excalidraw-assets/Assistant-Regular.woff2");
      }
    </style>
    
  </defs>
  <rect x="0" y="0" width="1793.7522437686007" height="1542.9365889534113" fill="#ffffff"></rect><g stroke-linecap="round" transform="translate(624.9807724725629 688.1080159989609) rotate(0 117.20001220703125 163.20000457763672)"><path d="M32 0 C67.69 -1.17, 104.35 0.18, 202.4 0 C220.23 0.04, 235.91 9.37, 234.4 32 C236.61 115.01, 240.06 197.43, 234.4 294.4 C235.38 312.28, 222.3 329.8, 202.4 326.4 C146.12 329.59, 86.91 326.21, 32 326.4 C8.83 328.54, -1.34 314.01, 0 294.4 C-1.45 233.32, -2.39 176.91, 0 32 C2.44 7.1, 12.18 0.26, 32 0" stroke="none" stroke-width="0" fill="#eebefa"></path><path d="M32 0 C74.58 -0.38, 115.65 0.16, 202.4 0 M32 0 C97.58 -1.67, 162.9 -0.92, 202.4 0 M202.4 0 C224.79 -1.76, 234.43 12.11, 234.4 32 M202.4 0 C223.42 0.71, 233.58 8.97, 234.4 32 M234.4 32 C235.91 113.22, 234.68 195.65, 234.4 294.4 M234.4 32 C234.38 118.2, 234.09 206.32, 234.4 294.4 M234.4 294.4 C232.9 316.67, 223.29 325.89, 202.4 326.4 M234.4 294.4 C236.29 315.79, 222.9 327.66, 202.4 326.4 M202.4 326.4 C145.2 325.05, 87.68 328.26, 32 326.4 M202.4 326.4 C149.06 326.56, 96.97 326.42, 32 326.4 M32 326.4 C11.38 326.22, 0.48 317.72, 0 294.4 M32 326.4 C9.65 326.06, 1.13 315.37, 0 294.4 M0 294.4 C-1.32 196.88, -0.85 99.03, 0 32 M0 294.4 C1.05 208.04, 1.1 121.42, 0 32 M0 32 C1.95 8.94, 8.82 -0.41, 32 0 M0 32 C1.65 12.56, 8.85 2.28, 32 0" stroke="#1e1e1e" stroke-width="2" fill="none"></path></g><g transform="translate(690.5807480585004 707.1080159989609) rotate(0 53.39598083496094 17.5)"><text x="0" y="0" font-family="Virgil, Segoe UI Emoji" font-size="28px" fill="#1e1e1e" text-anchor="start" style="white-space: pre;" direction="ltr" dominant-baseline="text-before-edge">Account</text></g><g transform="translate(678.5807785760785 777.9080190507187) rotate(0 60.359947204589844 100)"><text x="0" y="0" font-family="Virgil, Segoe UI Emoji" font-size="20px" fill="#1e1e1e" text-anchor="start" style="white-space: pre;" direction="ltr" dominant-baseline="text-before-edge">id</text><text x="0" y="25" font-family="Virgil, Segoe UI Emoji" font-size="20px" fill="#1e1e1e" text-anchor="start" style="white-space: pre;" direction="ltr" dominant-baseline="text-before-edge">owner name</text><text x="0" y="50" font-family="Virgil, Segoe UI Emoji" font-size="20px" fill="#1e1e1e" text-anchor="start" style="white-space: pre;" direction="ltr" dominant-baseline="text-before-edge">email</text><text x="0" y="75" font-family="Virgil, Segoe UI Emoji" font-size="20px" fill="#1e1e1e" text-anchor="start" style="white-space: pre;" direction="ltr" dominant-baseline="text-before-edge">password</text><text x="0" y="100" font-family="Virgil, Segoe UI Emoji" font-size="20px" fill="#1e1e1e" text-anchor="start" style="white-space: pre;" direction="ltr" dominant-baseline="text-before-edge">region_id</text><text x="0" y="125" font-family="Virgil, Segoe UI Emoji" font-size="20px" fill="#1e1e1e" text-anchor="start" style="white-space: pre;" direction="ltr" dominant-baseline="text-before-edge">is_active</text><text x="0" y="150" font-family="Virgil, Segoe UI Emoji" font-size="20px" fill="#1e1e1e" text-anchor="start" style="white-space: pre;" direction="ltr" dominant-baseline="text-before-edge">created_at</text><text x="0" y="175" font-family="Virgil, Segoe UI Emoji" font-size="20px" fill="#1e1e1e" text-anchor="start" style="white-space: pre;" direction="ltr" dominant-baseline="text-before-edge">updated_at</text></g><g stroke-linecap="round" transform="translate(231.63790312267452 1245.5366484626888) rotate(0 121.20001220703125 99.60002136230469)"><path d="M32 0 C68.94 -2.22, 107.39 -3.41, 210.4 0 C230.83 1.4, 244.02 13.45, 242.4 32 C247 69.55, 244.51 106, 242.4 167.2 C240.51 188.42, 232.13 202.11, 210.4 199.2 C138.59 195.94, 74.14 198.88, 32 199.2 C9.81 199.79, 2.37 190.7, 0 167.2 C-1.18 132.41, -3.71 103.66, 0 32 C1.43 11.86, 13.15 -2.03, 32 0" stroke="none" stroke-width="0" fill="#eebefa"></path><path d="M32 0 C68.5 -1.5, 104.16 -0.51, 210.4 0 M32 0 C79.87 1.13, 128.15 -0.23, 210.4 0 M210.4 0 C231.82 1.44, 243.21 11.33, 242.4 32 M210.4 0 C231.56 -1.78, 243.53 11.97, 242.4 32 M242.4 32 C243.75 81.7, 244.21 132.89, 242.4 167.2 M242.4 32 C243.15 78.84, 243.2 127.13, 242.4 167.2 M242.4 167.2 C240.97 187.14, 231.84 200.66, 210.4 199.2 M242.4 167.2 C244.58 189.33, 230.35 201.1, 210.4 199.2 M210.4 199.2 C154 201.16, 94.27 200.55, 32 199.2 M210.4 199.2 C173.87 198.27, 136.64 198.09, 32 199.2 M32 199.2 C8.9 200.28, 0.01 190.05, 0 167.2 M32 199.2 C10.76 196.97, 0.95 190.42, 0 167.2 M0 167.2 C-1.51 135.56, -0.51 104.32, 0 32 M0 167.2 C0.91 138.16, 0.52 110.13, 0 32 M0 32 C-0.97 9.39, 10.43 -1.25, 32 0 M0 32 C-0.3 9.21, 9.89 -0.32, 32 0" stroke="#1e1e1e" stroke-width="2" fill="none"></path></g><g transform="translate(258.83791532970577 1280.536709497845) rotate(0 93.99595642089844 17.5)"><text x="0" y="0" font-family="Virgil, Segoe UI Emoji" font-size="28px" fill="#1e1e1e" text-anchor="start" style="white-space: pre;" direction="ltr" dominant-baseline="text-before-edge">Account_type</text></g><g transform="translate(322.83791532970577 1332.9366728767511) rotate(0 32.91996765136719 37.5)"><text x="0" y="0" font-family="Virgil, Segoe UI Emoji" font-size="20px" fill="#1e1e1e" text-anchor="start" style="white-space: pre;" direction="ltr" dominant-baseline="text-before-edge">id (int)</text><text x="0" y="25" font-family="Virgil, Segoe UI Emoji" font-size="20px" fill="#1e1e1e" text-anchor="start" style="white-space: pre;" direction="ltr" dominant-baseline="text-before-edge">type</text><text x="0" y="50" font-family="Virgil, Segoe UI Emoji" font-size="20px" fill="#1e1e1e" text-anchor="start" style="white-space: pre;" direction="ltr" dominant-baseline="text-before-edge">desc</text></g><g stroke-linecap="round" transform="translate(623.7523963564913 1198.2508578830289) rotate(0 124 158.00001525878906)"><path d="M32 0 C91.14 2.86, 149.94 -2.31, 216 0 C239.19 -1.66, 247.29 11.13, 248 32 C252.2 82.35, 252.07 138.15, 248 284 C245.22 304, 235.86 319.58, 216 316 C163.03 311.72, 107.02 309.68, 32 316 C12.94 319.09, 1.83 306.89, 0 284 C-0.2 200.46, -2.56 120.71, 0 32 C2.62 11.09, 12.12 -2.86, 32 0" stroke="none" stroke-width="0" fill="#eebefa"></path><path d="M32 0 C103.73 -2.94, 174.69 -2.55, 216 0 M32 0 C69.05 0.24, 104.99 0.06, 216 0 M216 0 C238.82 0.13, 248.54 9.22, 248 32 M216 0 C238.37 1.81, 248.84 9.53, 248 32 M248 32 C248.39 111.71, 249.41 188.47, 248 284 M248 32 C249.18 93.47, 249.65 153.62, 248 284 M248 284 C248.92 303.89, 236.3 314.61, 216 316 M248 284 C246.94 307.01, 237.54 315.51, 216 316 M216 316 C171.67 315.66, 125.85 316.27, 32 316 M216 316 C149.1 317.48, 81.37 317.72, 32 316 M32 316 C12.03 317.45, 1 304.73, 0 284 M32 316 C11.4 315.58, -1.71 305, 0 284 M0 284 C1.74 204.34, 2.37 124.53, 0 32 M0 284 C2.63 198.32, 1.17 114.39, 0 32 M0 32 C-1.42 11.97, 8.88 -0.24, 32 0 M0 32 C-0.99 8.48, 10.07 -0.67, 32 0" stroke="#1e1e1e" stroke-width="2" fill="none"></path></g><g transform="translate(638.9524085635226 1213.250888400607) rotate(0 105.55995178222656 35)"><text x="105.55995178222656" y="0" font-family="Virgil, Segoe UI Emoji" font-size="28px" fill="#1e1e1e" text-anchor="middle" style="white-space: pre;" direction="ltr" dominant-baseline="text-before-edge">Account_type_</text><text x="105.55995178222656" y="35" font-family="Virgil, Segoe UI Emoji" font-size="28px" fill="#1e1e1e" text-anchor="middle" style="white-space: pre;" direction="ltr" dominant-baseline="text-before-edge">mapping</text></g><g transform="translate(686.7524573916476 1325.6508670383023) rotate(0 58.849952697753906 62.5)"><text x="0" y="0" font-family="Virgil, Segoe UI Emoji" font-size="20px" fill="#1e1e1e" text-anchor="start" style="white-space: pre;" direction="ltr" dominant-baseline="text-before-edge">acc_id</text><text x="0" y="25" font-family="Virgil, Segoe UI Emoji" font-size="20px" fill="#1e1e1e" text-anchor="start" style="white-space: pre;" direction="ltr" dominant-baseline="text-before-edge">type_id</text><text x="0" y="50" font-family="Virgil, Segoe UI Emoji" font-size="20px" fill="#1e1e1e" text-anchor="start" style="white-space: pre;" direction="ltr" dominant-baseline="text-before-edge">added_by</text><text x="0" y="75" font-family="Virgil, Segoe UI Emoji" font-size="20px" fill="#1e1e1e" text-anchor="start" style="white-space: pre;" direction="ltr" dominant-baseline="text-before-edge">created_at</text><text x="0" y="100" font-family="Virgil, Segoe UI Emoji" font-size="20px" fill="#1e1e1e" text-anchor="start" style="white-space: pre;" direction="ltr" dominant-baseline="text-before-edge">is_active</text></g><g stroke-linecap="round"><g transform="translate(772.3183051275296 1031.5453583864255) rotate(0 4.13633488942051 69.23132575450987)"><path d="M0.51 0.58 C2.14 23.8, 7.72 115.06, 9.12 138.17 M-0.68 -0.16 C0.92 23.35, 7.09 116.65, 8.61 139.55" stroke="#1e1e1e" stroke-width="2" fill="none"></path></g><g transform="translate(772.3183051275296 1031.5453583864255) rotate(0 4.13633488942051 69.23132575450987)"><path d="M-3.49 112.1 C0.19 120.23, 1.72 126.65, 8.61 139.55 M-3.49 112.1 C0.1 121.64, 5.08 131.04, 8.61 139.55" stroke="#1e1e1e" stroke-width="2" fill="none"></path></g><g transform="translate(772.3183051275296 1031.5453583864255) rotate(0 4.13633488942051 69.23132575450987)"><path d="M16.98 110.74 C15.6 119.3, 12.08 126.05, 8.61 139.55 M16.98 110.74 C13.17 120.65, 10.74 130.54, 8.61 139.55" stroke="#1e1e1e" stroke-width="2" fill="none"></path></g></g><mask></mask><g stroke-linecap="round"><g transform="translate(482.83788481212764 1366.834067962095) rotate(0 58.113903693099246 0.8771673100087582)"><path d="M0.8 -0.61 C20.03 -0.34, 97.54 1.58, 116.58 2.16 M-0.24 1.69 C18.76 1.54, 96.23 0.35, 115.82 0.26" stroke="#1e1e1e" stroke-width="2" fill="none"></path></g><g transform="translate(482.83788481212764 1366.834067962095) rotate(0 58.113903693099246 0.8771673100087582)"><path d="M87.74 10.82 C97.9 7, 110.81 0.22, 115.82 0.26 M87.74 10.82 C98.83 6.49, 110.27 2.21, 115.82 0.26" stroke="#1e1e1e" stroke-width="2" fill="none"></path></g><g transform="translate(482.83788481212764 1366.834067962095) rotate(0 58.113903693099246 0.8771673100087582)"><path d="M87.52 -9.7 C97.87 -5.32, 110.86 -3.91, 115.82 0.26 M87.52 -9.7 C98.89 -5.93, 110.42 -2.09, 115.82 0.26" stroke="#1e1e1e" stroke-width="2" fill="none"></path></g></g><mask></mask><g stroke-linecap="round" transform="translate(1165.6094629196891 624.2508769565155) rotate(0 124.800048828125 200.39998626708984)"><path d="M32 0 C83.85 -3.35, 137.46 -3.83, 217.6 0 C237.64 -0.71, 250.77 9.33, 249.6 32 C246.45 143.85, 247.58 254.52, 249.6 368.8 C249.32 390.1, 237.13 398.42, 217.6 400.8 C148.6 398.4, 77.84 399.49, 32 400.8 C11.72 404.27, -1.34 392.47, 0 368.8 C-1.89 275.54, -1.41 181.1, 0 32 C-3.42 12.53, 8.6 -3.28, 32 0" stroke="none" stroke-width="0" fill="#eebefa"></path><path d="M32 0 C86.28 0.42, 136.61 1.78, 217.6 0 M32 0 C85.58 -1, 140.41 -1.57, 217.6 0 M217.6 0 C237.76 -1.44, 248.05 12.2, 249.6 32 M217.6 0 C239.84 1.6, 249.29 10.39, 249.6 32 M249.6 32 C250.02 114.07, 249.8 195.29, 249.6 368.8 M249.6 32 C249.84 110.13, 250.31 188.06, 249.6 368.8 M249.6 368.8 C247.74 388.19, 239.14 402.66, 217.6 400.8 M249.6 368.8 C250.89 390.08, 238.06 402.67, 217.6 400.8 M217.6 400.8 C164.64 400.17, 108.91 402.64, 32 400.8 M217.6 400.8 C161.77 400.58, 105.7 401.18, 32 400.8 M32 400.8 C11.44 402.2, 0.61 388.14, 0 368.8 M32 400.8 C9.14 399.8, -2.06 390.41, 0 368.8 M0 368.8 C-1.26 256.48, -1.54 141.77, 0 32 M0 368.8 C2.16 241.45, 1.66 113.97, 0 32 M0 32 C1.5 9.63, 10.76 0.05, 32 0 M0 32 C-1.92 9.34, 9.29 1.83, 32 0" stroke="#1e1e1e" stroke-width="2" fill="none"></path></g><g transform="translate(1227.2094995407829 670.4508739047577) rotate(0 53.88597869873047 17.5)"><text x="0" y="0" font-family="Virgil, Segoe UI Emoji" font-size="28px" fill="#1e1e1e" text-anchor="start" style="white-space: pre;" direction="ltr" dominant-baseline="text-before-edge">Product</text></g><g transform="translate(1224.8094751267204 766.8508983188202) rotate(0 68.2099380493164 100)"><text x="0" y="0" font-family="Virgil, Segoe UI Emoji" font-size="20px" fill="#1e1e1e" text-anchor="start" style="white-space: pre;" direction="ltr" dominant-baseline="text-before-edge">id</text><text x="0" y="25" font-family="Virgil, Segoe UI Emoji" font-size="20px" fill="#1e1e1e" text-anchor="start" style="white-space: pre;" direction="ltr" dominant-baseline="text-before-edge">seller_id</text><text x="0" y="50" font-family="Virgil, Segoe UI Emoji" font-size="20px" fill="#1e1e1e" text-anchor="start" style="white-space: pre;" direction="ltr" dominant-baseline="text-before-edge">product_name</text><text x="0" y="75" font-family="Virgil, Segoe UI Emoji" font-size="20px" fill="#1e1e1e" text-anchor="start" style="white-space: pre;" direction="ltr" dominant-baseline="text-before-edge">description</text><text x="0" y="100" font-family="Virgil, Segoe UI Emoji" font-size="20px" fill="#1e1e1e" text-anchor="start" style="white-space: pre;" direction="ltr" dominant-baseline="text-before-edge">approved_by</text><text x="0" y="125" font-family="Virgil, Segoe UI Emoji" font-size="20px" fill="#1e1e1e" text-anchor="start" style="white-space: pre;" direction="ltr" dominant-baseline="text-before-edge">created_at</text><text x="0" y="150" font-family="Virgil, Segoe UI Emoji" font-size="20px" fill="#1e1e1e" text-anchor="start" style="white-space: pre;" direction="ltr" dominant-baseline="text-before-edge">updated_at</text><text x="0" y="175" font-family="Virgil, Segoe UI Emoji" font-size="20px" fill="#1e1e1e" text-anchor="start" style="white-space: pre;" direction="ltr" dominant-baseline="text-before-edge">is_active</text></g><g stroke-linecap="round" transform="translate(1532.5521705264132 499.1652015807132) rotate(0 125.60003662109375 183.9999771118164)"><path d="M32 0 C106.76 0.51, 175.33 1.28, 219.2 0 C241.43 -1.48, 252.93 12.49, 251.2 32 C255.4 124.33, 256.18 214.24, 251.2 336 C254.35 357.02, 241.27 364.65, 219.2 368 C182.3 364.77, 142.9 364.37, 32 368 C7.86 368.55, 3.47 360.36, 0 336 C-3.05 251.65, -2.25 167.56, 0 32 C-0.55 7.72, 9.7 -0.87, 32 0" stroke="none" stroke-width="0" fill="#eebefa"></path><path d="M32 0 C71.04 0, 111.64 -2, 219.2 0 M32 0 C73.7 -0.44, 114.67 -0.21, 219.2 0 M219.2 0 C240.43 1.73, 249.43 9, 251.2 32 M219.2 0 C241.21 -0.12, 253.47 10.54, 251.2 32 M251.2 32 C251.13 117.86, 251.81 206.78, 251.2 336 M251.2 32 C248.55 110.99, 249.07 190.37, 251.2 336 M251.2 336 C249.39 356.24, 240.08 368.09, 219.2 368 M251.2 336 C252.36 355.83, 240.09 367.1, 219.2 368 M219.2 368 C182.11 367.02, 145.84 368.11, 32 368 M219.2 368 C177.74 366.82, 137.37 365.59, 32 368 M32 368 C11.95 366.52, 0.38 357.88, 0 336 M32 368 C8.48 369.17, -0.08 357.46, 0 336 M0 336 C-0.69 269.58, -1.7 204.84, 0 32 M0 336 C-1.61 243.99, -1.83 152.37, 0 32 M0 32 C-1.37 12.15, 11.59 0.2, 32 0 M0 32 C-0.47 9.76, 11.83 1.01, 32 0" stroke="#1e1e1e" stroke-width="2" fill="none"></path></g><g transform="translate(1558.1523902529757 538.9652198912601) rotate(0 96.12395477294922 17.5)"><text x="0" y="0" font-family="Virgil, Segoe UI Emoji" font-size="28px" fill="#1e1e1e" text-anchor="start" style="white-space: pre;" direction="ltr" dominant-baseline="text-before-edge">Product_price</text></g><g transform="translate(1590.9521949404757 602.5652412535647) rotate(0 67.84992980957031 112.5)"><text x="0" y="0" font-family="Virgil, Segoe UI Emoji" font-size="20px" fill="#1e1e1e" text-anchor="start" style="white-space: pre;" direction="ltr" dominant-baseline="text-before-edge">product_id</text><text x="0" y="25" font-family="Virgil, Segoe UI Emoji" font-size="20px" fill="#1e1e1e" text-anchor="start" style="white-space: pre;" direction="ltr" dominant-baseline="text-before-edge">region_id</text><text x="0" y="50" font-family="Virgil, Segoe UI Emoji" font-size="20px" fill="#1e1e1e" text-anchor="start" style="white-space: pre;" direction="ltr" dominant-baseline="text-before-edge">price</text><text x="0" y="75" font-family="Virgil, Segoe UI Emoji" font-size="20px" fill="#1e1e1e" text-anchor="start" style="white-space: pre;" direction="ltr" dominant-baseline="text-before-edge">discount_perc</text><text x="0" y="100" font-family="Virgil, Segoe UI Emoji" font-size="20px" fill="#1e1e1e" text-anchor="start" style="white-space: pre;" direction="ltr" dominant-baseline="text-before-edge">max_discount</text><text x="0" y="125" font-family="Virgil, Segoe UI Emoji" font-size="20px" fill="#1e1e1e" text-anchor="start" style="white-space: pre;" direction="ltr" dominant-baseline="text-before-edge">is_active</text><text x="0" y="150" font-family="Virgil, Segoe UI Emoji" font-size="20px" fill="#1e1e1e" text-anchor="start" style="white-space: pre;" direction="ltr" dominant-baseline="text-before-edge">created_at</text><text x="0" y="175" font-family="Virgil, Segoe UI Emoji" font-size="20px" fill="#1e1e1e" text-anchor="start" style="white-space: pre;" direction="ltr" dominant-baseline="text-before-edge">updated_at</text><text x="0" y="200" font-family="Virgil, Segoe UI Emoji" font-size="20px" fill="#1e1e1e" text-anchor="start" style="white-space: pre;" direction="ltr" dominant-baseline="text-before-edge"></text></g><g stroke-linecap="round"><g transform="translate(1437.0094110398063 717.4165384592355) rotate(0 40.23191519482725 -27.542834000033395)"><path d="M-1.17 0.88 C12.33 -8.33, 67.53 -46.8, 81.2 -56.19 M0.41 0.3 C13.8 -8.72, 67.33 -46.12, 80.64 -55.24" stroke="#1e1e1e" stroke-width="2" fill="none"></path></g><g transform="translate(1437.0094110398063 717.4165384592355) rotate(0 40.23191519482725 -27.542834000033395)"><path d="M63.31 -30.75 C70.43 -37.07, 72.58 -45.42, 80.64 -55.24 M63.31 -30.75 C68.76 -36.34, 71.7 -43.66, 80.64 -55.24" stroke="#1e1e1e" stroke-width="2" fill="none"></path></g><g transform="translate(1437.0094110398063 717.4165384592355) rotate(0 40.23191519482725 -27.542834000033395)"><path d="M51.62 -47.62 C62.3 -48.51, 68.13 -51.54, 80.64 -55.24 M51.62 -47.62 C60.07 -48.74, 66.11 -51.59, 80.64 -55.24" stroke="#1e1e1e" stroke-width="2" fill="none"></path></g></g><mask></mask><g stroke-linecap="round"><g transform="translate(879.980856395903 795.7346151971302) rotate(0 134.71430860246932 7.533294544288822)"><path d="M0.48 0.94 C45.42 3.34, 224.44 12.66, 269.19 15.09 M-0.72 0.38 C44.07 2.94, 223.34 14.47, 268.11 16.64" stroke="#1e1e1e" stroke-width="2" fill="none"></path></g><g transform="translate(879.980856395903 795.7346151971302) rotate(0 134.71430860246932 7.533294544288822)"><path d="M239.38 25.27 C248.47 22.48, 254.53 19.82, 268.11 16.64 M239.38 25.27 C249.33 23.12, 258.02 19.13, 268.11 16.64" stroke="#1e1e1e" stroke-width="2" fill="none"></path></g><g transform="translate(879.980856395903 795.7346151971302) rotate(0 134.71430860246932 7.533294544288822)"><path d="M240.56 4.78 C249.45 7.4, 255.19 10.14, 268.11 16.64 M240.56 4.78 C250.1 9.53, 258.39 12.44, 268.11 16.64" stroke="#1e1e1e" stroke-width="2" fill="none"></path></g></g><mask></mask><g stroke-linecap="round" transform="translate(1143.0951894124346 1175.9365813240167) rotate(0 127.00004577636719 178.50000381469727)"><path d="M32 0 C85.04 -0.11, 131.7 -2.93, 222 0 C243.59 3.27, 254.03 11.07, 254 32 C256.61 128.07, 258.69 224.58, 254 325 C251.36 349.32, 239.9 359.7, 222 357 C174.2 358.01, 129.71 357.68, 32 357 C11.73 355.9, 0.46 346.3, 0 325 C1.72 239.69, 1.93 157.33, 0 32 C-1.29 8.11, 9.15 -3.34, 32 0" stroke="none" stroke-width="0" fill="#eebefa"></path><path d="M32 0 C97.16 -2.8, 165.39 -2.51, 222 0 M32 0 C106.96 -0.48, 182.86 -0.45, 222 0 M222 0 C244.68 -0.78, 252.67 11.97, 254 32 M222 0 C241.93 -0.12, 254.69 10.1, 254 32 M254 32 C253.34 111.27, 252.37 191.54, 254 325 M254 32 C255.43 96.86, 255.03 162.21, 254 325 M254 325 C255.64 346.59, 242.16 357.2, 222 357 M254 325 C254.21 347.22, 244.12 356.48, 222 357 M222 357 C175.67 356.76, 127.7 359.12, 32 357 M222 357 C149.35 356.32, 75.38 356.06, 32 357 M32 357 C8.76 355.42, -1.71 345.35, 0 325 M32 357 C11.23 355.82, -2.17 348.07, 0 325 M0 325 C3.45 215.74, 0.72 103.43, 0 32 M0 325 C-2.7 264.31, -2.46 204.05, 0 32 M0 32 C-1.02 11.44, 8.75 -1.55, 32 0 M0 32 C-2.02 11.84, 10.43 -0.12, 32 0" stroke="#1e1e1e" stroke-width="2" fill="none"></path></g><g transform="translate(1162.8452123006182 1210.936600397503) rotate(0 105.699951171875 17.5)"><text x="105.699951171875" y="0" font-family="Virgil, Segoe UI Emoji" font-size="28px" fill="#1e1e1e" text-anchor="middle" style="white-space: pre;" direction="ltr" dominant-baseline="text-before-edge">Product_review</text></g><g transform="translate(1219.1751607259112 1280.9366766914484) rotate(0 60.359947204589844 87.5)"><text x="0" y="0" font-family="Virgil, Segoe UI Emoji" font-size="20px" fill="#1e1e1e" text-anchor="start" style="white-space: pre;" direction="ltr" dominant-baseline="text-before-edge">id (int)</text><text x="0" y="25" font-family="Virgil, Segoe UI Emoji" font-size="20px" fill="#1e1e1e" text-anchor="start" style="white-space: pre;" direction="ltr" dominant-baseline="text-before-edge">acc_id</text><text x="0" y="50" font-family="Virgil, Segoe UI Emoji" font-size="20px" fill="#1e1e1e" text-anchor="start" style="white-space: pre;" direction="ltr" dominant-baseline="text-before-edge">product_id</text><text x="0" y="75" font-family="Virgil, Segoe UI Emoji" font-size="20px" fill="#1e1e1e" text-anchor="start" style="white-space: pre;" direction="ltr" dominant-baseline="text-before-edge">comment</text><text x="0" y="100" font-family="Virgil, Segoe UI Emoji" font-size="20px" fill="#1e1e1e" text-anchor="start" style="white-space: pre;" direction="ltr" dominant-baseline="text-before-edge">rating</text><text x="0" y="125" font-family="Virgil, Segoe UI Emoji" font-size="20px" fill="#1e1e1e" text-anchor="start" style="white-space: pre;" direction="ltr" dominant-baseline="text-before-edge">created_at</text><text x="0" y="150" font-family="Virgil, Segoe UI Emoji" font-size="20px" fill="#1e1e1e" text-anchor="start" style="white-space: pre;" direction="ltr" dominant-baseline="text-before-edge">updated_at</text></g><g stroke-linecap="round"><g transform="translate(876.3807968866256 995.3133354593532) rotate(0 126.35718863350996 135.59155841141785)"><path d="M-0.98 0.62 C41.31 45.86, 210.21 226.96, 252.64 272.03 M0.71 -0.1 C42.92 44.75, 209.55 224.95, 251.66 270.35" stroke="#1e1e1e" stroke-width="2" fill="none"></path></g><g transform="translate(876.3807968866256 995.3133354593532) rotate(0 126.35718863350996 135.59155841141785)"><path d="M224.97 256.64 C231.77 259.66, 237.83 264.24, 251.66 270.35 M224.97 256.64 C232.64 261.27, 240.69 264.76, 251.66 270.35" stroke="#1e1e1e" stroke-width="2" fill="none"></path></g><g transform="translate(876.3807968866256 995.3133354593532) rotate(0 126.35718863350996 135.59155841141785)"><path d="M240.03 242.69 C243.69 248.57, 246.54 256.11, 251.66 270.35 M240.03 242.69 C243.45 251.39, 247.16 258.9, 251.66 270.35" stroke="#1e1e1e" stroke-width="2" fill="none"></path></g></g><mask></mask><g stroke-linecap="round"><g transform="translate(1301.5323065227903 1044.981331864336) rotate(0 0.8694620192520119 55.977617100445855)"><path d="M0.51 -1.05 C1.06 17.76, 2.31 92.8, 2.57 111.68 M-0.68 1.02 C-0.16 20.1, 1.7 94.29, 2.05 113.07" stroke="#1e1e1e" stroke-width="2" fill="none"></path></g><g transform="translate(1301.5323065227903 1044.981331864336) rotate(0 0.8694620192520119 55.977617100445855)"><path d="M-8.84 85.12 C-8.23 93.18, -4.32 98.99, 2.05 113.07 M-8.84 85.12 C-4.97 93.92, -2.5 104.19, 2.05 113.07" stroke="#1e1e1e" stroke-width="2" fill="none"></path></g><g transform="translate(1301.5323065227903 1044.981331864336) rotate(0 0.8694620192520119 55.977617100445855)"><path d="M11.68 84.66 C7.35 92.92, 6.32 98.84, 2.05 113.07 M11.68 84.66 C8.87 93.76, 4.68 104.18, 2.05 113.07" stroke="#1e1e1e" stroke-width="2" fill="none"></path></g></g><mask></mask><g stroke-linecap="round" transform="translate(585.2380007789254 18.22225419301833) rotate(0 127.42867606026778 157.71434238978804)"><path d="M32 0 C104.59 1.99, 179.02 1.8, 222.86 0 C241.74 -0.17, 252.86 12.98, 254.86 32 C254.51 85.76, 258.69 136.07, 254.86 283.43 C257.26 301.53, 245.08 317.23, 222.86 315.43 C174.51 319.83, 127.33 320.73, 32 315.43 C13.38 318.08, 3.15 302.14, 0 283.43 C-2.57 199.32, 1.11 112.67, 0 32 C-3.41 13.23, 13.88 2.51, 32 0" stroke="none" stroke-width="0" fill="#eebefa"></path><path d="M32 0 C107.36 -0.3, 186.34 -2.07, 222.86 0 M32 0 C88.78 -0.02, 146.45 1.41, 222.86 0 M222.86 0 C242.85 1.13, 255.42 10.13, 254.86 32 M222.86 0 C245.78 0.21, 255.72 10.49, 254.86 32 M254.86 32 C254.76 115.75, 254.85 200.09, 254.86 283.43 M254.86 32 C257.45 104.51, 256.94 177.6, 254.86 283.43 M254.86 283.43 C253.87 304.54, 244.58 314.72, 222.86 315.43 M254.86 283.43 C256.09 306.22, 245.79 317.28, 222.86 315.43 M222.86 315.43 C150.55 314.79, 82.36 315.94, 32 315.43 M222.86 315.43 C151.88 315.1, 81.65 314.42, 32 315.43 M32 315.43 C11.36 317.32, 1.3 306.56, 0 283.43 M32 315.43 C10.17 313.43, 1.14 306.08, 0 283.43 M0 283.43 C1.34 233.85, 0.96 182.89, 0 32 M0 283.43 C2.51 213.9, 1.47 142.81, 0 32 M0 32 C-1.73 12.6, 12.41 -1.13, 32 0 M0 32 C-2.24 9.14, 10.97 2.02, 32 0" stroke="#1e1e1e" stroke-width="2" fill="none"></path></g><g transform="translate(660.3809102376304 70.22228907025055) rotate(0 37.225975036621094 17.5)"><text x="0" y="0" font-family="Virgil, Segoe UI Emoji" font-size="28px" fill="#1e1e1e" text-anchor="start" style="white-space: pre;" direction="ltr" dominant-baseline="text-before-edge">Billing</text></g><g transform="translate(637.9683237227182 139.00002615792408) rotate(0 59.839935302734375 75)"><text x="0" y="0" font-family="Virgil, Segoe UI Emoji" font-size="20px" fill="#1e1e1e" text-anchor="start" style="white-space: pre;" direction="ltr" dominant-baseline="text-before-edge">id</text><text x="0" y="25" font-family="Virgil, Segoe UI Emoji" font-size="20px" fill="#1e1e1e" text-anchor="start" style="white-space: pre;" direction="ltr" dominant-baseline="text-before-edge">acc_id</text><text x="0" y="50" font-family="Virgil, Segoe UI Emoji" font-size="20px" fill="#1e1e1e" text-anchor="start" style="white-space: pre;" direction="ltr" dominant-baseline="text-before-edge">address</text><text x="0" y="75" font-family="Virgil, Segoe UI Emoji" font-size="20px" fill="#1e1e1e" text-anchor="start" style="white-space: pre;" direction="ltr" dominant-baseline="text-before-edge">total</text><text x="0" y="100" font-family="Virgil, Segoe UI Emoji" font-size="20px" fill="#1e1e1e" text-anchor="start" style="white-space: pre;" direction="ltr" dominant-baseline="text-before-edge">billing_at</text><text x="0" y="125" font-family="Virgil, Segoe UI Emoji" font-size="20px" fill="#1e1e1e" text-anchor="start" style="white-space: pre;" direction="ltr" dominant-baseline="text-before-edge">billing_region</text></g><g stroke-linecap="round" transform="translate(1181.4285714285713 10) rotate(0 134.9999999999999 166.42857142857133)"><path d="M32 0 C106.85 0.43, 180 2.3, 238 0 C260.48 -3.03, 273.51 11.75, 270 32 C268.78 105.95, 268.03 180.42, 270 300.86 C272.78 320.93, 261.25 329.98, 238 332.86 C161.67 337.19, 87.94 336.35, 32 332.86 C11.5 333.48, 1.92 325.25, 0 300.86 C-1.35 225.43, -4.09 150.45, 0 32 C0.27 10.97, 8.06 1.69, 32 0" stroke="none" stroke-width="0" fill="#eebefa"></path><path d="M32 0 C75.23 1.15, 119.32 -0.35, 238 0 M32 0 C110.99 -1.2, 191.08 -2.29, 238 0 M238 0 C258.15 1.45, 268.56 10.95, 270 32 M238 0 C259.43 -0.73, 268.81 11.29, 270 32 M270 32 C269.67 119.85, 272.23 205.13, 270 300.86 M270 32 C272.28 91.48, 271.44 149.95, 270 300.86 M270 300.86 C268.14 324.07, 258.21 331.12, 238 332.86 M270 300.86 C267.94 323.92, 258.21 331.19, 238 332.86 M238 332.86 C180.19 332.13, 122.47 333.45, 32 332.86 M238 332.86 C190.74 332.47, 143.82 332.59, 32 332.86 M32 332.86 C12.53 332.18, 1.63 320.42, 0 300.86 M32 332.86 C10.86 333.7, 0.26 321.38, 0 300.86 M0 300.86 C0.77 224.71, 1.07 148.28, 0 32 M0 300.86 C-0.44 217.94, 0.17 133.93, 0 32 M0 32 C1.82 11.58, 11.19 0.62, 32 0 M0 32 C1.95 12.49, 9 0.24, 32 0" stroke="#1e1e1e" stroke-width="2" fill="none"></path></g><g transform="translate(1224.285714285714 60.71428571428555) rotate(0 100.32394409179688 17.5)"><text x="0" y="0" font-family="Virgil, Segoe UI Emoji" font-size="28px" fill="#1e1e1e" text-anchor="start" style="white-space: pre;" direction="ltr" dominant-baseline="text-before-edge">Billing_product</text></g><g transform="translate(1228.5714285714282 147.8571428571429) rotate(0 82.669921875 62.5)"><text x="0" y="0" font-family="Virgil, Segoe UI Emoji" font-size="20px" fill="#1e1e1e" text-anchor="start" style="white-space: pre;" direction="ltr" dominant-baseline="text-before-edge">billing_id</text><text x="0" y="25" font-family="Virgil, Segoe UI Emoji" font-size="20px" fill="#1e1e1e" text-anchor="start" style="white-space: pre;" direction="ltr" dominant-baseline="text-before-edge">product_id</text><text x="0" y="50" font-family="Virgil, Segoe UI Emoji" font-size="20px" fill="#1e1e1e" text-anchor="start" style="white-space: pre;" direction="ltr" dominant-baseline="text-before-edge">quantity</text><text x="0" y="75" font-family="Virgil, Segoe UI Emoji" font-size="20px" fill="#1e1e1e" text-anchor="start" style="white-space: pre;" direction="ltr" dominant-baseline="text-before-edge">price</text><text x="0" y="100" font-family="Virgil, Segoe UI Emoji" font-size="20px" fill="#1e1e1e" text-anchor="start" style="white-space: pre;" direction="ltr" dominant-baseline="text-before-edge">discount_amount</text></g><g stroke-linecap="round" transform="translate(10 639.365079365079) rotate(0 133.57142857142867 156.42857142857136)"><path d="M32 0 C114.46 -4.95, 188.83 -1.61, 235.14 0 C254.14 -3.3, 265.08 11.79, 267.14 32 C266.37 85.02, 265.75 140.17, 267.14 280.86 C270.08 303.64, 254.16 314.89, 235.14 312.86 C186.6 314.09, 138.22 311.03, 32 312.86 C7.82 309.99, 1.68 304.99, 0 280.86 C4.13 201.41, 3.12 117.05, 0 32 C2.94 14.04, 9.12 -2.03, 32 0" stroke="none" stroke-width="0" fill="#eebefa"></path><path d="M32 0 C106.53 0.5, 181.08 -0.53, 235.14 0 M32 0 C106.21 -0.97, 178.77 -0.34, 235.14 0 M235.14 0 C256.08 -1.43, 268.97 10, 267.14 32 M235.14 0 C256.73 -0.79, 266.28 10.42, 267.14 32 M267.14 32 C267.72 100.27, 267.17 171.92, 267.14 280.86 M267.14 32 C268.8 129.21, 269.34 227.02, 267.14 280.86 M267.14 280.86 C265.55 303.3, 256.76 314.53, 235.14 312.86 M267.14 280.86 C265.8 302.85, 256.28 312.71, 235.14 312.86 M235.14 312.86 C189.53 311.5, 140.14 312.38, 32 312.86 M235.14 312.86 C189.26 314.93, 143.93 313.86, 32 312.86 M32 312.86 C12.08 312.95, -1.77 303.36, 0 280.86 M32 312.86 C11.88 313.89, 1.66 302.94, 0 280.86 M0 280.86 C0.25 206.82, -0.23 136.41, 0 32 M0 280.86 C-1.92 195.68, -1.63 111.66, 0 32 M0 32 C0.2 9.33, 9.42 0.79, 32 0 M0 32 C0.39 12.08, 11.51 1.43, 32 0" stroke="#1e1e1e" stroke-width="2" fill="none"></path></g><g transform="translate(25.714285714285552 678.6507936507933) rotate(0 119.11195373535156 17.5)"><text x="0" y="0" font-family="Virgil, Segoe UI Emoji" font-size="28px" fill="#1e1e1e" text-anchor="start" style="white-space: pre;" direction="ltr" dominant-baseline="text-before-edge">Account_address</text></g><g transform="translate(80 755.7936507936504) rotate(0 60.359947204589844 62.5)"><text x="0" y="0" font-family="Virgil, Segoe UI Emoji" font-size="20px" fill="#1e1e1e" text-anchor="start" style="white-space: pre;" direction="ltr" dominant-baseline="text-before-edge">acc_id</text><text x="0" y="25" font-family="Virgil, Segoe UI Emoji" font-size="20px" fill="#1e1e1e" text-anchor="start" style="white-space: pre;" direction="ltr" dominant-baseline="text-before-edge">name</text><text x="0" y="50" font-family="Virgil, Segoe UI Emoji" font-size="20px" fill="#1e1e1e" text-anchor="start" style="white-space: pre;" direction="ltr" dominant-baseline="text-before-edge">address</text><text x="0" y="75" font-family="Virgil, Segoe UI Emoji" font-size="20px" fill="#1e1e1e" text-anchor="start" style="white-space: pre;" direction="ltr" dominant-baseline="text-before-edge">created_at</text><text x="0" y="100" font-family="Virgil, Segoe UI Emoji" font-size="20px" fill="#1e1e1e" text-anchor="start" style="white-space: pre;" direction="ltr" dominant-baseline="text-before-edge">updated_at</text></g><g stroke-linecap="round"><g transform="translate(612.8262394496388 785.7247540398015) rotate(0 -160.00000000000009 -0.2833806134109409)"><path d="M-1.16 0.29 C-54.64 0.22, -267.43 0.2, -320.69 0.22 M0.43 -0.61 C-52.67 -1.07, -265.23 -1.36, -318.34 -1.49" stroke="#1e1e1e" stroke-width="2" fill="none"></path></g><g transform="translate(612.8262394496388 785.7247540398015) rotate(0 -160.00000000000009 -0.2833806134109409)"><path d="M-290.13 -11.7 C-298.48 -9.91, -306.52 -6.77, -318.34 -1.49 M-290.13 -11.7 C-301.89 -8.91, -311.61 -4.78, -318.34 -1.49" stroke="#1e1e1e" stroke-width="2" fill="none"></path></g><g transform="translate(612.8262394496388 785.7247540398015) rotate(0 -160.00000000000009 -0.2833806134109409)"><path d="M-290.17 8.83 C-298.61 4.16, -306.64 0.84, -318.34 -1.49 M-290.17 8.83 C-301.84 3.79, -311.55 0.1, -318.34 -1.49" stroke="#1e1e1e" stroke-width="2" fill="none"></path></g></g><mask></mask><g stroke-linecap="round"><g transform="translate(706.4955524899578 667.2936507936485) rotate(0 -10.504310076560898 -152.8571428571428)"><path d="M0.25 1.03 C-3.12 -49.59, -17.43 -253.64, -20.92 -304.64 M-1.07 0.52 C-4.54 -50.32, -18.45 -254.96, -21.83 -306.2" stroke="#1e1e1e" stroke-width="2" fill="none"></path></g><g transform="translate(706.4955524899578 667.2936507936485) rotate(0 -10.504310076560898 -152.8571428571428)"><path d="M-9.7 -278.76 C-10.75 -285.32, -13.64 -291.69, -21.83 -306.2 M-9.7 -278.76 C-14.66 -288.55, -19.05 -298.02, -21.83 -306.2" stroke="#1e1e1e" stroke-width="2" fill="none"></path></g><g transform="translate(706.4955524899578 667.2936507936485) rotate(0 -10.504310076560898 -152.8571428571428)"><path d="M-30.18 -277.39 C-26.19 -284.33, -24.08 -291.04, -21.83 -306.2 M-30.18 -277.39 C-27.72 -287.88, -24.69 -297.84, -21.83 -306.2" stroke="#1e1e1e" stroke-width="2" fill="none"></path></g></g><mask></mask><g stroke-linecap="round"><g transform="translate(862.8262394496376 122.13741975014113) rotate(0 155.71428571428578 6.973607806777636)"><path d="M0.43 0.12 C52.19 2.34, 259.51 11.41, 311.18 13.62 M-0.8 -0.87 C50.72 1.5, 257.83 12.44, 310.11 14.98" stroke="#1e1e1e" stroke-width="2" fill="none"></path></g><g transform="translate(862.8262394496376 122.13741975014113) rotate(0 155.71428571428578 6.973607806777636)"><path d="M281.43 23.79 C291.69 20.18, 301.03 15.86, 310.11 14.98 M281.43 23.79 C288.41 21.01, 295.63 18.43, 310.11 14.98" stroke="#1e1e1e" stroke-width="2" fill="none"></path></g><g transform="translate(862.8262394496376 122.13741975014113) rotate(0 155.71428571428578 6.973607806777636)"><path d="M282.47 3.3 C292.41 6.9, 301.39 9.78, 310.11 14.98 M282.47 3.3 C289.29 5.7, 296.24 8.28, 310.11 14.98" stroke="#1e1e1e" stroke-width="2" fill="none"></path></g></g><mask></mask><g stroke-linecap="round"><g transform="translate(1295.1284920253725 600.1507936507913) rotate(0 -19.87830988363021 -118.96825396825393)"><path d="M0.74 0.96 C-5.92 -38.41, -33.86 -197.1, -40.72 -236.83 M-0.33 0.41 C-6.56 -39.21, -31.64 -198.38, -38.52 -238.37" stroke="#1e1e1e" stroke-width="2" fill="none"></path></g><g transform="translate(1295.1284920253725 600.1507936507913) rotate(0 -19.87830988363021 -118.96825396825393)"><path d="M-23.84 -212.21 C-25.59 -219.94, -28.82 -225.69, -38.52 -238.37 M-23.84 -212.21 C-29.81 -221.22, -34.91 -229.61, -38.52 -238.37" stroke="#1e1e1e" stroke-width="2" fill="none"></path></g><g transform="translate(1295.1284920253725 600.1507936507913) rotate(0 -19.87830988363021 -118.96825396825393)"><path d="M-44.09 -208.89 C-41.02 -217.53, -39.45 -224.08, -38.52 -238.37 M-44.09 -208.89 C-43.17 -219.23, -41.35 -228.75, -38.52 -238.37" stroke="#1e1e1e" stroke-width="2" fill="none"></path></g></g><mask></mask><g stroke-linecap="round"><g transform="translate(1538.9189758994237 483.00793650793446) rotate(0 -79.36780596340236 -58.968253968253904)"><path d="M-1.16 -0.24 C-27.85 -19.77, -133.32 -98.33, -159.52 -117.79" stroke="#1e1e1e" stroke-width="2.5" fill="none" stroke-dasharray="8 10"></path></g><g transform="translate(1538.9189758994237 483.00793650793446) rotate(0 -79.36780596340236 -58.968253968253904)"><path d="M-130.78 -109.2 C-141.23 -113.81, -150.69 -114.98, -159.52 -117.79" stroke="#1e1e1e" stroke-width="2.5" fill="none"></path></g><g transform="translate(1538.9189758994237 483.00793650793446) rotate(0 -79.36780596340236 -58.968253968253904)"><path d="M-143.03 -92.74 C-149.1 -103.01, -154.25 -109.97, -159.52 -117.79" stroke="#1e1e1e" stroke-width="2.5" fill="none"></path></g></g><mask></mask><g stroke-linecap="round" transform="translate(98.54052516392244 223.00793650793452) rotate(0 122.14285714285714 154.28571428571428)"><path d="M32 0 C79.42 1.27, 122.42 -2.81, 212.29 0 C230.11 3.44, 241.39 13.66, 244.29 32 C246.29 102.33, 248.81 165.13, 244.29 276.57 C246.42 300.61, 231.23 305.35, 212.29 308.57 C148.24 305.15, 85.05 302.88, 32 308.57 C8.96 310.66, -3.34 299.46, 0 276.57 C-3.65 201.83, -2.74 128.37, 0 32 C-1.71 13.99, 9.69 1.25, 32 0" stroke="none" stroke-width="0" fill="#eebefa"></path><path d="M32 0 C72.89 -0.59, 111.67 -3.02, 212.29 0 M32 0 C89.88 -1.58, 149.66 -0.87, 212.29 0 M212.29 0 C235.55 -1.75, 243.56 9.15, 244.29 32 M212.29 0 C232.17 -0.59, 243.4 9.37, 244.29 32 M244.29 32 C246.2 115.94, 244.58 200.58, 244.29 276.57 M244.29 32 C244.71 98.67, 243.56 164.42, 244.29 276.57 M244.29 276.57 C244.32 298.43, 232.91 309.07, 212.29 308.57 M244.29 276.57 C244.96 297.32, 232.75 309.96, 212.29 308.57 M212.29 308.57 C168.35 310.15, 125.32 306.64, 32 308.57 M212.29 308.57 C163.09 306.9, 115.31 306.05, 32 308.57 M32 308.57 C10.69 307.61, 1.69 297.53, 0 276.57 M32 308.57 C9.3 308.01, 0.09 297.33, 0 276.57 M0 276.57 C-1.18 184.24, -2.08 93.71, 0 32 M0 276.57 C0.38 186.95, 1.47 97.71, 0 32 M0 32 C1.33 8.79, 11.77 -0.45, 32 0 M0 32 C-2.1 10.19, 10.29 -1.01, 32 0" stroke="#1e1e1e" stroke-width="2" fill="none"></path></g><g transform="translate(164.2548108782081 265.1507936507917) rotate(0 41.52397918701172 17.5)"><text x="0" y="0" font-family="Virgil, Segoe UI Emoji" font-size="28px" fill="#1e1e1e" text-anchor="start" style="white-space: pre;" direction="ltr" dominant-baseline="text-before-edge">Region</text></g><g transform="translate(148.54052516392244 340.86507936507735) rotate(0 68.14993286132812 75)"><text x="0" y="0" font-family="Virgil, Segoe UI Emoji" font-size="20px" fill="#1e1e1e" text-anchor="start" style="white-space: pre;" direction="ltr" dominant-baseline="text-before-edge">id (int)</text><text x="0" y="25" font-family="Virgil, Segoe UI Emoji" font-size="20px" fill="#1e1e1e" text-anchor="start" style="white-space: pre;" direction="ltr" dominant-baseline="text-before-edge">name</text><text x="0" y="50" font-family="Virgil, Segoe UI Emoji" font-size="20px" fill="#1e1e1e" text-anchor="start" style="white-space: pre;" direction="ltr" dominant-baseline="text-before-edge">currency_type</text><text x="0" y="75" font-family="Virgil, Segoe UI Emoji" font-size="20px" fill="#1e1e1e" text-anchor="start" style="white-space: pre;" direction="ltr" dominant-baseline="text-before-edge">is_active</text><text x="0" y="100" font-family="Virgil, Segoe UI Emoji" font-size="20px" fill="#1e1e1e" text-anchor="start" style="white-space: pre;" direction="ltr" dominant-baseline="text-before-edge">created_at</text><text x="0" y="125" font-family="Virgil, Segoe UI Emoji" font-size="20px" fill="#1e1e1e" text-anchor="start" style="white-space: pre;" direction="ltr" dominant-baseline="text-before-edge">updated_at</text></g><g stroke-linecap="round"><g transform="translate(351.3976680210653 541.579365079363) rotate(0 130 73.57142857142861)"><path d="M-1.14 -0.33 C42.08 24.36, 215.24 123.53, 258.92 148.16 M0.45 -1.55 C44.08 22.82, 217.7 121.49, 261.06 146.57" stroke="#1e1e1e" stroke-width="2" fill="none"></path></g><g transform="translate(351.3976680210653 541.579365079363) rotate(0 130 73.57142857142861)"><path d="M231.5 141.47 C238.7 141.29, 248.69 145.98, 261.06 146.57 M231.5 141.47 C241.35 142.67, 250.43 145.46, 261.06 146.57" stroke="#1e1e1e" stroke-width="2" fill="none"></path></g><g transform="translate(351.3976680210653 541.579365079363) rotate(0 130 73.57142857142861)"><path d="M241.69 123.66 C246.22 128.05, 253.55 137.41, 261.06 146.57 M241.69 123.66 C248.25 130.67, 254.01 139.28, 261.06 146.57" stroke="#1e1e1e" stroke-width="2" fill="none"></path></g></g><mask></mask><g stroke-linecap="round"><g transform="translate(365.6833823067795 424.4365079365059) rotate(0 576.4285714285713 55.71428571428572)"><path d="M-0.7 -1.17 C191.13 17.43, 959.67 91.97, 1151.91 110.85 M1.14 0.82 C193.26 19.65, 962.32 93.87, 1154.12 112.08" stroke="#1e1e1e" stroke-width="2" fill="none"></path></g><g transform="translate(365.6833823067795 424.4365079365059) rotate(0 576.4285714285713 55.71428571428572)"><path d="M1125.08 119.61 C1134.13 115.36, 1146.09 113.94, 1154.12 112.08 M1125.08 119.61 C1135.76 118.01, 1145.87 114.32, 1154.12 112.08" stroke="#1e1e1e" stroke-width="2" fill="none"></path></g><g transform="translate(365.6833823067795 424.4365079365059) rotate(0 576.4285714285713 55.71428571428572)"><path d="M1127.04 99.18 C1135.22 102.63, 1146.43 108.92, 1154.12 112.08 M1127.04 99.18 C1136.91 104.87, 1146.32 108.47, 1154.12 112.08" stroke="#1e1e1e" stroke-width="2" fill="none"></path></g></g><mask></mask><g stroke-linecap="round"><g transform="translate(363.58814421154364 317.1031746031726) rotate(0 98.88888888888889 -23.888888888888886)"><path d="M0.22 -0.32 C33.5 -8.58, 165.5 -40.74, 198.54 -48.73 M-1.13 -1.53 C32.17 -9.75, 164.8 -40.08, 198 -47.69" stroke="#1e1e1e" stroke-width="2" fill="none"></path></g><g transform="translate(363.58814421154364 317.1031746031726) rotate(0 98.88888888888889 -23.888888888888886)"><path d="M172.81 -31.39 C177.29 -33.48, 181.35 -36.93, 198 -47.69 M172.81 -31.39 C178.63 -35.14, 186.44 -38.94, 198 -47.69" stroke="#1e1e1e" stroke-width="2" fill="none"></path></g><g transform="translate(363.58814421154364 317.1031746031726) rotate(0 98.88888888888889 -23.888888888888886)"><path d="M168.23 -51.39 C173.78 -49.42, 178.78 -48.8, 198 -47.69 M168.23 -51.39 C175.19 -49.95, 184.2 -48.56, 198 -47.69" stroke="#1e1e1e" stroke-width="2" fill="none"></path></g></g><mask></mask></svg>